<svg xmlns="http://www.w3.org/2000/svg" viewBox="0 0 30 48"><defs><style>.a,.e{fill:none;}.a{stroke:#000;}.b{font-size:15px;font-family:SourceSansPro-Bold, Source Sans Pro;font-weight:700;letter-spacing:-0.02em;}.c{font-size:8px;font-family:Roboto-Regular, Roboto;}.d{stroke:none;}</style></defs><g transform="translate(-392 -184)"><g class="a" transform="translate(392 184)"><rect class="d" width="30" height="48" rx="4"/><rect class="e" x="0.5" y="0.5" width="29" height="47" rx="3.5"/></g><path d="M6.472,7.83H1.532L0,3.044,4.06,0,8,3.044,6.472,7.83ZM5.142,4.975h.016V6.056c0,.067-.017.11-.05.13a.316.316,0,0,1-.148.033v.056H5.7V6.22a.248.248,0,0,1-.154-.042.224.224,0,0,1-.041-.16V5.04c0-.085.014-.14.041-.161A.3.3,0,0,1,5.7,4.837V4.78H5.138L4.7,5.8H4.686L4.251,4.78H3.694v.056a.35.35,0,0,1,.153.037.136.136,0,0,1,.043.119v1.05a.2.2,0,0,1-.038.131.224.224,0,0,1-.164.045v.056h.517V6.22a.249.249,0,0,1-.182-.056A.256.256,0,0,1,3.983,6V5h.01l.548,1.275H4.6l.542-1.3ZM2.222,4.78v.056a.343.343,0,0,1,.133.026.135.135,0,0,1,.063.131V6.064a.136.136,0,0,1-.066.132.324.324,0,0,1-.13.024v.056H3.5l.09-.5H3.528a.7.7,0,0,1-.234.343.605.605,0,0,1-.335.088.319.319,0,0,1-.15-.024.106.106,0,0,1-.038-.1V5.04c0-.087.015-.143.045-.165A.349.349,0,0,1,3,4.837V4.78Zm-.185-2.2-.81.563h.625l.635.508H5.9l.318-.508.45-.262v-.3Z" transform="translate(403 187.857)"/><text class="b" transform="translate(407 213.143)"><tspan x="-11.58" y="0">100</tspan></text><text class="c" transform="translate(407 225.284)"><tspan x="-9.201" y="0">gram</tspan></text></g></svg>