<?xml version="1.0" encoding="utf-8"?>
<!-- Generator: Adobe Illustrator 21.1.0, SVG Export Plug-In . SVG Version: 6.00 Build 0)  -->
<svg version="1.1" id="Layer_1" xmlns="http://www.w3.org/2000/svg" xmlns:xlink="http://www.w3.org/1999/xlink" x="0px" y="0px"
	 viewBox="0 0 24 24" style="enable-background:new 0 0 24 24;" xml:space="preserve">
<style type="text/css">
	.st0{fill:#FFFFFF;}
</style>
<path class="st0" d="M11.3,17.1c-0.2-0.1-0.7-0.3-1.8-0.8l-1.7-0.8c-0.2-0.1-0.4-0.2-0.5-0.4c-0.1-0.1,0-0.4,0.2-0.7l0.2-0.3
	l-0.7,0.3c-0.2,0.1-0.4,0.2-0.6,0.2c-0.3,0-0.5-0.1-0.7-0.2l-3-1.3c-0.1-0.1-0.3-0.2-0.3-0.3c0-0.2,0-0.3,0.1-0.5l1-1.8
	c0.1-0.1,0.2-0.2,0.3-0.3c0.1,0,0.1-0.1,0.2-0.1c0,0-0.1,0.1-0.2,0.2s0,0.3,0.2,0.4l1.5,0.7c0.3,0.2,0.6,0.3,0.9,0.3
	c0.3,0,0.6-0.1,0.9-0.3l0.2-0.1l-0.8-0.3C6.1,11,5.9,10.7,6,10.3c0-0.1,0.1-0.2,0.1-0.2L7,8.4c0.1-0.1,0.2-0.2,0.3-0.3
	C7.4,8.1,7.5,8,7.6,8C7.5,8.1,7.4,8.2,7.4,8.2c-0.1,0.1,0,0.3,0.2,0.4l2.3,1c0.3,0.2,0.6,0.3,0.9,0.3c0.3,0,0.6-0.1,0.9-0.3l5.3-2.6
	c0.2-0.1,0.3-0.2,0.3-0.3c0-0.1,0-0.2,0-0.2l0.4,0.6l0.8,1.3c0.2,0.4,0.2,0.7-0.2,0.8l-6.7,3.3c-0.2,0.1-0.5,0.2-0.7,0.2
	c-0.3,0-0.5-0.1-0.8-0.2l-0.7-0.3c-0.1,0-0.3,0.1-0.4,0.1c-0.1,0-0.2,0.1-0.3,0.2c-0.1,0.1,0,0.3,0.3,0.4l2.2,1
	c0.3,0.2,0.6,0.3,0.9,0.3c0.3,0,0.6-0.1,0.9-0.3l7.3-3.6c0.2-0.1,0.3-0.2,0.3-0.3c0-0.1,0-0.1,0-0.2l0.4,0.6l0.8,1.3
	c0.2,0.4,0.2,0.7-0.2,0.8l-8.7,4.3c-0.1,0.1-0.3,0.1-0.4,0.2c-0.1,0-0.2,0.1-0.3,0.1c-0.1,0-0.2,0-0.3-0.1
	C11.6,17.3,11.4,17.2,11.3,17.1z"/>
</svg>
