<svg id="icon_logo" data-name="icon logo" xmlns="http://www.w3.org/2000/svg" width="0.85cm" height="0.85cm" viewBox="0 0 24 24"><title>icon_logo</title><path d="M11.19,17.87l-2-.94L7.2,16a1.15,1.15,0,0,1-.6-.43q-.12-.23.21-.76l.2-.35-.81.39a1.87,1.87,0,0,1-.73.24,2.48,2.48,0,0,1-.82-.24L1.15,13.4a.64.64,0,0,1-.38-.34.67.67,0,0,1,.09-.53L2,10.44a1.1,1.1,0,0,1,.37-.34L2.64,10a1.72,1.72,0,0,0-.23.25c-.11.15,0,.3.23.45l1.73.75a3,3,0,0,0,.94.36,2.26,2.26,0,0,0,1.08-.36l.17-.12-.88-.37a.75.75,0,0,1-.39-1.19L6.34,7.88a1.09,1.09,0,0,1,.35-.31l.24-.13a1.3,1.3,0,0,0-.22.25q-.18.23.22.45L9.58,9.3a2.74,2.74,0,0,0,.94.34,2.51,2.51,0,0,0,1-.34l6.09-2.92q.31-.18.31-.35V5.85l.46.7.94,1.52q.36.66-.18.94l-7.68,3.75a2,2,0,0,1-.83.26,2.32,2.32,0,0,1-.88-.26L9,12.43a3.18,3.18,0,0,0-.46.13.72.72,0,0,0-.31.24q-.2.22.31.49l2.52,1.12a3.18,3.18,0,0,0,1,.36,2.26,2.26,0,0,0,1-.35l8.28-4.14q.31-.18.31-.35a.44.44,0,0,0,0-.2l.49.7L23.11,12q.36.68-.18.94l-10,5a4.87,4.87,0,0,1-.49.2,1.48,1.48,0,0,1-.37.07.94.94,0,0,1-.38-.07Z" fill="#222"/></svg>